<svg xmlns="http://www.w3.org/2000/svg" xmlns:xlink="http://www.w3.org/1999/xlink" viewBox="0 0 229.55 174.87"><defs><style>.cls-1{fill:url(#linear-gradient);}.cls-2{fill:url(#linear-gradient-2);}.cls-3{fill:url(#linear-gradient-3);}.cls-4{fill:#fff;}.cls-5{fill:#ef6728;}</style><linearGradient id="linear-gradient" x1="152.484" y1="110.302" x2="167.546" y2="110.302" gradientTransform="matrix(0.891, 0.454, -0.515, 1.011, 102.514, -93.026)" gradientUnits="userSpaceOnUse"><stop offset="0" stop-color="#e1412a"/><stop offset="0.995" stop-color="#fd8c26"/></linearGradient><linearGradient id="linear-gradient-2" x1="-0.268" y1="72.292" x2="86.913" y2="72.292" gradientUnits="userSpaceOnUse"><stop offset="0" stop-color="#e1412a"/><stop offset="0.511" stop-color="#ef6728"/><stop offset="1" stop-color="#fd8c26"/></linearGradient><linearGradient id="linear-gradient-3" x1="41.68" y1="94.767" x2="189.279" y2="94.767" gradientTransform="matrix(1, 0, 0, 1, 0, 0)" xlink:href="#linear-gradient"/></defs><title>Asset 1</title><g id="Layer_2" data-name="Layer 2"><g id="Layer_1-2" data-name="Layer 1"><path class="cls-1" d="M196.12,92.388c1.435-2.819.584-6.13-1.9-7.4L189.8,82.741c-2.486-1.266-5.664-.006-7.1,2.812h0l1.048.534c-1.8,3.85-2,8.217.517,11.383l.013.2a.714.714,0,0,0,1.121.571l.167-.1c4.033.169,7.458-2.555,9.509-6.278l1.048.533Z"/><path class="cls-2" d="M43.59,0C19.513,0,0,20.933,0,46.762,0,63.2,7.9,77.637,19.845,85.976a.281.281,0,0,0,.105-.023.351.351,0,0,1,.1-.181,17.831,17.831,0,0,1-1.76-7.762c0-9.372,7.076-16.964,15.805-16.964S49.9,68.638,49.9,78.01c0,.3-.008.606-.017.908-.182,4.717-1.709,9.327-3.5,14.508-2.7,7.8-6,16.928-6.182,29.717-.017.392-.017.784-.017,1.175a48.185,48.185,0,0,0,4.423,20.265,45.617,45.617,0,0,1-1.56-11.854c0-.367.009-.724.009-1.09,0-17.224,5.5-27.459,19.844-39.891,10.252-8.886,24.252-21.111,24.252-43.6,0-.454.025-.916.025-1.388C87.181,20.933,67.667,0,43.59,0Z"/><path class="cls-3" d="M183.358,88.316c-1.251-.146-1.769-.274-4.046-.654a44.3,44.3,0,0,1-7.318-2.094A53.6,53.6,0,0,1,153.727,73.5a3.682,3.682,0,0,1,3.151-2.089,1.525,1.525,0,0,1,.866.1l.019,0,.008.006a2.082,2.082,0,0,1,.41.236c.088.064.181.121.27.183.892.558,1.817,1.1,2.8,1.6a1.908,1.908,0,0,1,.343.187,1.772,1.772,0,0,1,.376.163,1.836,1.836,0,0,1,.651.325,1.667,1.667,0,0,1,.266.137,1.69,1.69,0,0,1,.39.156l.038.009a32.311,32.311,0,0,0,3.1,1.161l.082.026A46.358,46.358,0,0,0,178.016,77.5h.1c1.264,0,2.259-.061,2.748-.095l.048,0c.01,0,.019,0,.029,0,.076,0,.148-.016.223-.023l.2-.015.013-.006a2.544,2.544,0,0,0,.974-.4,5.35,5.35,0,0,0,.506-.755c.069-.135.143-.265.205-.406s.129-.289.183-.437c.036-.092.063-.192.1-.287a10.672,10.672,0,0,0,.337-1.379,37.128,37.128,0,0,0,.275-4.322A38.449,38.449,0,0,0,153.673,31.8a38.142,38.142,0,0,0-6.654-15.344c-.095-.132-.2-.256-.3-.387a4.863,4.863,0,0,0-2.139-1.206c-2.691-.64-3.192.245-3.222,2.662,0,.14-.012.275-.027.406a49.657,49.657,0,0,1-2.4,13.553c-4.307,13.283-14.482,25.4-31.6,33.328a87.072,87.072,0,0,1-9.074,3.566c-1.711.567-3.38,1.145-5,1.734-39.6,14.4-51.191,34.7-51.573,57.921-.011.4-.011.8-.011,1.2a45.632,45.632,0,0,0,44.649,45.63c.327.011,54.645,0,54.645,0a16.512,16.512,0,0,0-16.511-16.512H118.9c.114-.164.222-.333.334-.5a38.877,38.877,0,0,0,8.661-44.886,20.043,20.043,0,0,0,23.45-2.213c2.459-2.164,4.507-3.92,5.448-4.619a57.935,57.935,0,0,1,13.84-7.667,52.034,52.034,0,0,1,18.648-3.5v-.011A6.688,6.688,0,0,0,183.358,88.316Z"/><ellipse class="cls-4" cx="163.322" cy="47.493" rx="1.487" ry="2.34" transform="translate(10.464 122.085) rotate(-42.226)"/><path class="cls-4" d="M75.653,147.224H69.137v-26.64h5.868l10.368,16.848-.288-16.848H91.6v26.64H85.7L75.473,130.953Z"/><path class="cls-4" d="M95.309,134.516a14.972,14.972,0,0,1,1.818-7.361,13.441,13.441,0,0,1,5.022-5.185,13.9,13.9,0,0,1,7.2-1.889,14.191,14.191,0,0,1,7.057,1.817,13.737,13.737,0,0,1,5.13,4.95,13.07,13.07,0,0,1,1.889,6.876,14,14,0,0,1-1.836,7.092,13.619,13.619,0,0,1-4.985,5.059,13.415,13.415,0,0,1-6.931,1.853,15.322,15.322,0,0,1-7.038-1.674,13.749,13.749,0,0,1-5.309-4.7A12.041,12.041,0,0,1,95.309,134.516Zm21.312-.576a8.419,8.419,0,0,0-.936-3.905,7.489,7.489,0,0,0-2.593-2.9,7.044,7.044,0,0,0-7.469-.017,7.447,7.447,0,0,0-2.575,2.843,8.2,8.2,0,0,0-.935,3.871,8.535,8.535,0,0,0,.935,4,7.311,7.311,0,0,0,2.611,2.861,6.928,6.928,0,0,0,3.8,1.062,6.63,6.63,0,0,0,3.69-1.062,7.311,7.311,0,0,0,2.556-2.844A8.4,8.4,0,0,0,116.621,133.94Z"/><path class="cls-5" d="M146.572,120.584a11.4,11.4,0,0,1,5.58,1.188,7.241,7.241,0,0,1,3.042,2.988,8.364,8.364,0,0,1,.918,3.853,8,8,0,0,1-.936,3.762,7.283,7.283,0,0,1-3.078,2.952,11.563,11.563,0,0,1-5.562,1.17h-5.365v10.727h-2.663v-26.64Zm6.876,7.957a5.149,5.149,0,0,0-1.728-3.96A7.444,7.444,0,0,0,146.536,123h-5.365v11.087h5.941a6.724,6.724,0,0,0,4.572-1.53A5.054,5.054,0,0,0,153.448,128.541Z"/><path class="cls-5" d="M172.744,147.692a13.848,13.848,0,0,1-6.876-1.817,14.428,14.428,0,0,1-5.22-4.951,12.615,12.615,0,0,1-1.981-6.876,13.507,13.507,0,0,1,1.891-6.984,14.013,14.013,0,0,1,5.111-5.075,13.833,13.833,0,0,1,7.075-1.872,14.188,14.188,0,0,1,12.2,6.876,13.409,13.409,0,0,1,0,13.788,14.224,14.224,0,0,1-5.148,5.04A13.858,13.858,0,0,1,172.744,147.692Zm-.037-25.163A10.787,10.787,0,0,0,167,124.113a11.74,11.74,0,0,0-4.139,4.229,11.2,11.2,0,0,0-1.53,5.706,10.537,10.537,0,0,0,1.566,5.544,11.823,11.823,0,0,0,4.194,4.14,10.946,10.946,0,0,0,5.652,1.549,11.141,11.141,0,0,0,5.759-1.549,11.51,11.51,0,0,0,4.159-4.157,11.171,11.171,0,0,0,0-11.286,11.582,11.582,0,0,0-4.176-4.195A11.143,11.143,0,0,0,172.707,122.529Z"/><path class="cls-5" d="M197.4,122.529a4.735,4.735,0,0,0-3.439,1.349,4.424,4.424,0,0,0-1.385,3.294A3.676,3.676,0,0,0,193.767,130a9.378,9.378,0,0,0,3.961,1.817,11.346,11.346,0,0,1,5.9,3.114,7.289,7.289,0,0,1,1.8,4.95,7.462,7.462,0,0,1-1.079,3.943,8.056,8.056,0,0,1-6.948,3.869,8.778,8.778,0,0,1-4.195-.989,7.337,7.337,0,0,1-2.916-2.79,8.243,8.243,0,0,1-1.1-4.141h2.664A5.9,5.9,0,0,0,193.5,143.8a5.731,5.731,0,0,0,6.624.756,5.245,5.245,0,0,0,1.944-1.926,5.159,5.159,0,0,0,.7-2.645,4.536,4.536,0,0,0-1.35-3.4,9.629,9.629,0,0,0-4.049-2.106,26.627,26.627,0,0,1-3.907-1.4,6.5,6.5,0,0,1-2.538-2.124,6.16,6.16,0,0,1-1.008-3.672,6.9,6.9,0,0,1,1.008-3.691,7.046,7.046,0,0,1,2.718-2.555,7.819,7.819,0,0,1,3.763-.918,7.493,7.493,0,0,1,3.744.954,7.055,7.055,0,0,1,2.664,2.609,7.132,7.132,0,0,1,.972,3.672H202.12a4.776,4.776,0,0,0-.649-2.447,4.681,4.681,0,0,0-1.746-1.746A4.591,4.591,0,0,0,197.4,122.529Z"/><path class="cls-5" d="M211.731,120.584v26.64h-2.664v-26.64Z"/><path class="cls-5" d="M214.682,123v-2.413H229.55V123h-6.084v24.227H220.8V123Z"/></g></g></svg>